<svg width="24.000000" height="24.000000" viewBox="0 0 24 24" fill="none" xmlns="http://www.w3.org/2000/svg" xmlns:xlink="http://www.w3.org/1999/xlink">
	<desc>
			Created with Pixso.
	</desc>
	<defs>
		<clipPath id="clip1_466">
			<rect id="Frame" width="24.000000" height="24.000000" fill="white" fill-opacity="0"/>
		</clipPath>
	</defs>
	<rect id="Frame" width="24.000000" height="24.000000" fill="#2E2B44" fill-opacity="0"/>
	<g clip-path="url(#clip1_466)">
		<path id="Vector" d="M22.162 5.65594C21.3986 5.99359 20.589 6.21539 19.7601 6.3139C20.6338 5.79138 21.2878 4.96893 21.6 3.99994C20.78 4.48792 19.881 4.82996 18.944 5.01495C18.3146 4.34149 17.4804 3.8949 16.571 3.74451C15.6616 3.59412 14.728 3.74841 13.9153 4.18335C13.1027 4.61835 12.4564 5.30963 12.0771 6.14972C11.6979 6.98981 11.6068 7.9317 11.8181 8.82892C10.1552 8.74561 8.52838 8.31348 7.04333 7.56061C5.55829 6.80774 4.24817 5.75098 3.19806 4.45892C2.82635 5.09735 2.63098 5.82318 2.63208 6.56195C2.63208 8.0119 3.37006 9.29291 4.49207 10.0429C3.82806 10.022 3.17871 9.84271 2.59802 9.5199L2.59802 9.5719C2.59827 10.5376 2.93243 11.4736 3.54388 12.221C4.1554 12.9684 5.00653 13.4814 5.95306 13.6729C5.33667 13.84 4.69037 13.8646 4.06305 13.7449C4.3299 14.5762 4.85004 15.3031 5.55066 15.824C6.25122 16.345 7.09717 16.6337 7.97003 16.6499C7.10254 17.3312 6.10925 17.8349 5.04694 18.1321C3.98462 18.4293 2.87421 18.5142 1.77905 18.3819C3.69073 19.6114 5.91614 20.264 8.18903 20.2619C15.8821 20.2619 20.0891 13.8889 20.0891 8.36194C20.0891 8.18195 20.084 7.99994 20.076 7.8219C20.8949 7.2301 21.6016 6.49695 22.163 5.65692L22.162 5.65594Z" fill="#FFFFFF" fill-opacity="1.000000" fill-rule="nonzero"/>
	</g>
</svg>
