<svg width="142.000000" height="24.000000" viewBox="0 0 142 24" fill="none" xmlns="http://www.w3.org/2000/svg" xmlns:xlink="http://www.w3.org/1999/xlink">
	<desc>
			Created with Pixso.
	</desc>
	<defs/>
	<circle cx="8.500000" cy="12.000000" r="8.000000" stroke="#333333" stroke-opacity="1.000000" stroke-width="1.000000"/>
	<path d="M30.999 10.4844C30.4668 8.90723 29.2998 7.94043 27.3076 7.94043C25.1055 7.94043 23.5039 9.2002 23.5039 10.9971C23.5039 12.457 24.3926 13.4531 26.292 13.9072L28.0742 14.332C29.2705 14.6201 29.8467 15.2354 29.8467 16.1094C29.8467 17.2471 28.7627 18.0918 27.083 18.0918C25.5938 18.0918 24.6611 17.418 24.3584 16.124L23.1426 16.4219C23.5283 18.2383 24.9688 19.2295 27.1074 19.2295C29.5049 19.2295 31.1553 17.9062 31.1553 16.0508C31.1553 14.5957 30.2373 13.624 28.4111 13.1748L26.7656 12.7695C25.4082 12.4326 24.7783 11.8857 24.7783 10.9385C24.7783 9.83008 25.833 9.05859 27.3076 9.05859C28.7773 9.05859 29.5 9.83008 29.8418 10.8115L30.999 10.4844ZM33.9403 19L35.2098 19L35.2098 8.0918L33.9403 8.0918L33.9403 19ZM34.5848 6.2168C35.1024 6.2168 35.5369 5.80176 35.5369 5.30859C35.5369 4.81055 35.1024 4.39551 34.5848 4.39551C34.0672 4.39551 33.6424 4.81055 33.6424 5.30859C33.6424 5.80176 34.0672 6.2168 34.5848 6.2168ZM38.5634 19L39.828 19L39.828 12.0127C39.828 10.3135 40.956 9.10742 42.4696 9.10742C43.9589 9.10742 44.828 10.0986 44.828 11.5781L44.828 19L46.1171 19L46.1171 11.8174C46.1171 10.25 47.0546 9.10742 48.7196 9.10742C50.1601 9.10742 51.1171 9.97168 51.1171 11.6904L51.1171 19L52.3817 19L52.3817 11.6904C52.3817 9.24902 51.1269 7.9502 49.1005 7.9502C47.5136 7.9502 46.3612 8.72168 45.873 9.93262L45.7802 9.93262C45.2968 8.69238 44.3349 7.9502 42.831 7.9502C41.4052 7.9502 40.3358 8.63867 39.9062 9.7666L39.789 9.7666L39.789 8.0918L38.5634 8.0918L38.5634 19ZM55.7225 23.0918L56.9871 23.0918L56.9871 16.9736L57.0994 16.9736C57.5389 17.9795 58.4764 19.2295 60.4539 19.2295C63.1199 19.2295 64.9412 16.9541 64.9412 13.5752C64.9412 10.2061 63.1297 7.94043 60.4393 7.94043C58.4276 7.94043 57.5487 9.19043 57.0994 10.1719L56.9481 10.1719L56.9481 8.0918L55.7225 8.0918L55.7225 23.0918ZM56.9725 13.5508C56.9725 10.9385 58.1639 9.09277 60.3026 9.09277C62.4949 9.09277 63.6766 11.0361 63.6766 13.5508C63.6766 16.0947 62.4705 18.0674 60.3026 18.0674C58.1932 18.0674 56.9725 16.1875 56.9725 13.5508ZM68.9829 4.4541L67.7182 4.4541L67.7182 19L68.9829 19L68.9829 4.4541ZM76.7297 19.2295C78.9172 19.2295 80.3869 18.043 80.8849 16.6709L79.6838 16.2803C79.2639 17.2617 78.2775 18.0674 76.7297 18.0674C74.4982 18.0674 73.0871 16.4414 73.0285 13.9219L81.1535 13.9219L81.1535 13.2969C81.1535 9.6543 78.9025 7.94043 76.5392 7.94043C73.7121 7.94043 71.759 10.3086 71.759 13.6094C71.759 16.9199 73.6779 19.2295 76.7297 19.2295ZM73.0383 12.8086C73.1701 10.7773 74.5422 9.09277 76.5392 9.09277C78.4924 9.09277 79.8644 10.7041 79.8644 12.8086L73.0383 12.8086Z" fill="#333333" fill-opacity="1.000000" fill-rule="evenodd"/>
	<rect x="88.500000" y="4.000000" rx="8.000000" width="31.000000" height="16.000000" stroke="#333333" stroke-opacity="1.000000" stroke-width="1.000000"/>
	<circle cx="133.500000" cy="12.000000" r="8.000000" stroke="#333333" stroke-opacity="1.000000" stroke-width="1.000000"/>
</svg>
