<svg width="255.000000" height="135.000000" viewBox="0 0 255 135" fill="none" xmlns="http://www.w3.org/2000/svg" xmlns:xlink="http://www.w3.org/1999/xlink">
	<desc>
			Created with Pixso.
	</desc>
	<defs>
		<clipPath id="clip1_577">
			<rect id="hahnemuehle-logo-vector 1" width="197.000000" height="55.000000" transform="translate(29.000000 34.000000)" fill="white" fill-opacity="0"/>
		</clipPath>
	</defs>
	<rect id="hahnemuehle-logo-vector 1" width="197.000000" height="55.000000" transform="translate(29.000000 34.000000)" fill="#FFFFFF" fill-opacity="0"/>
	<g clip-path="url(#clip1_577)">
		<path id="Vector" d="M91.5745 82.9001L91.5745 63.5334L89.1161 63.5334L89.1161 71.8668L80.6919 71.8668L80.6919 63.5334L78.2335 63.5334L78.2335 82.9001L80.6919 82.9001L80.6919 74.1334L89.1488 74.1334L89.1488 82.9001L91.5745 82.9001ZM106.194 73.0334C106.194 70.0001 104.883 68.4334 100.884 68.4334C99.3757 68.4334 97.6057 68.6668 96.3274 69.0668L96.5568 71.0334C97.6713 70.8001 99.4086 70.5668 100.72 70.5668C102.981 70.5668 103.735 71.2001 103.735 72.9668L103.735 75.1668L100.064 75.1668C97.2451 75.1668 95.8029 76.2334 95.8029 79.1668C95.8029 81.6668 96.9174 83.2334 99.507 83.2334C101.179 83.2334 102.785 82.7668 104.03 81.9001L104.194 82.9668L106.227 82.9668L106.194 73.0334ZM103.768 79.9668C102.686 80.6668 101.375 81.1334 100.162 81.1334C98.458 81.1334 98.1958 80.5334 98.1958 79.1001C98.1958 77.6668 98.7531 77.2001 100.228 77.2001L103.768 77.2001L103.768 79.9668ZM121.206 82.9001L121.206 72.0334C121.206 69.8668 120.42 68.4334 118.191 68.4334C116.585 68.4334 114.356 69.1334 112.815 69.9334L112.815 62.6334L110.422 62.9668L110.422 82.9334L112.815 82.9334L112.815 72.2668C114.323 71.5001 116.453 70.8001 117.47 70.8001C118.355 70.8001 118.814 71.1668 118.814 72.1001L118.814 82.9334L121.206 82.9334L121.206 82.9001ZM136.448 82.9001L136.448 72.0334C136.448 69.8668 135.662 68.4334 133.433 68.4334C131.794 68.4334 129.368 69.1668 127.828 69.9668L127.598 68.7668L125.631 68.7668L125.631 82.9334L128.024 82.9334L128.024 72.2334C129.532 71.4668 131.663 70.8001 132.679 70.8001C133.564 70.8001 134.023 71.1668 134.023 72.1001L134.023 82.9334L136.448 82.9334L136.448 82.9001ZM142.578 77.9668L142.578 76.8001L150.871 76.8001L150.871 73.8334C150.871 70.9001 149.757 68.4668 145.627 68.4668C141.496 68.4668 140.185 70.8334 140.185 73.7668L140.185 78.0001C140.185 81.2001 141.595 83.2001 145.692 83.2001C147.429 83.2001 149.298 82.9001 150.609 82.4001L150.314 80.4334C148.773 80.8334 147.298 81.1001 145.922 81.1001C143.201 81.1001 142.578 80.2001 142.578 77.9668ZM142.578 73.5668C142.578 71.5668 143.365 70.5001 145.627 70.5001C147.888 70.5001 148.544 71.6334 148.544 73.5668L148.544 74.7334L142.578 74.7334L142.578 73.5668ZM173.882 82.9001L173.882 72.0334C173.882 69.8668 173.095 68.4334 170.866 68.4334C169.129 68.4334 166.769 69.1334 165.097 69.9668C164.704 69.0001 163.884 68.4334 162.442 68.4334C160.803 68.4334 158.377 69.1668 156.837 69.9668L156.607 68.7668L154.641 68.7668L154.641 82.9334L157.034 82.9334L157.034 72.2334C158.541 71.4668 160.672 70.8001 161.688 70.8001C162.573 70.8001 163.032 71.1668 163.032 72.1001L163.032 82.9334L165.425 82.9334L165.425 72.2334C166.933 71.4668 168.932 70.8001 170.079 70.8001C170.964 70.8001 171.423 71.1668 171.423 72.1001L171.423 82.9334L173.882 82.9334L173.882 82.9001ZM178.176 68.7668L178.176 79.6334C178.176 81.8001 178.963 83.2334 181.191 83.2334C182.83 83.2334 185.256 82.5001 186.797 81.7001L187.026 82.9001L188.993 82.9001L188.993 68.7334L186.6 68.7334L186.6 79.4334C185.092 80.2001 182.961 80.8668 181.945 80.8668C181.06 80.8668 180.601 80.5001 180.601 79.5668L180.601 68.7334L178.176 68.7668ZM180.11 66.6001L182.339 66.6001L182.339 64.1668L180.11 64.1668L180.11 66.6001ZM185.059 66.6001L187.288 66.6001L187.288 64.1668L185.059 64.1668L185.059 66.6001ZM204.366 82.9001L204.366 72.0334C204.366 69.8668 203.579 68.4334 201.35 68.4334C199.744 68.4334 197.515 69.1334 195.975 69.9334L195.975 62.6334L193.582 62.9668L193.582 82.9334L195.975 82.9334L195.975 72.2668C197.482 71.5001 199.613 70.8001 200.629 70.8001C201.514 70.8001 201.973 71.1668 201.973 72.1001L201.973 82.9334L204.366 82.9334L204.366 82.9001ZM211.217 82.9001L211.217 62.6001L208.824 62.9334L208.824 82.9001L211.217 82.9001ZM217.445 77.9668L217.445 76.8001L225.738 76.8001L225.738 73.8334C225.738 70.9001 224.623 68.4668 220.493 68.4668C216.363 68.4668 215.052 70.8334 215.052 73.7668L215.052 78.0001C215.052 81.2001 216.461 83.2001 220.559 83.2001C222.296 83.2001 224.164 82.9001 225.475 82.4001L225.18 80.4334C223.64 80.8334 222.165 81.1001 220.788 81.1001C218.068 81.1001 217.445 80.2001 217.445 77.9668ZM217.445 73.5668C217.445 71.5668 218.231 70.5001 220.493 70.5001C222.755 70.5001 223.41 71.6334 223.41 73.5668L223.41 74.7334L217.445 74.7334L217.445 73.5668Z" fill="#6F7072" fill-opacity="1.000000" fill-rule="nonzero"/>
		<path id="Vector" d="M67.5477 56.0331C67.3184 53.4332 66.2039 51.1331 64.3682 49.6331C62.7292 48.2665 60.6315 47.5998 58.5991 47.8665C56.108 48.1331 54.0757 50.0665 52.7974 51.6331C51.3551 53.3665 50.3717 55.2665 49.8473 56.6331C48.5688 55.4998 47.7494 54.1665 47.3561 52.5331C47.0283 51.1331 46.6677 48.3665 46.4055 46.3665C46.2089 45.0331 46.1105 43.9665 46.0122 43.5998C45.7499 42.3665 44.9304 40.2665 44.406 39.1665C45.5532 38.9331 46.4382 38.6331 47.2905 37.7998C48.1428 36.9331 49.5194 35.5998 49.5522 35.5998L50.3717 34.7998L49.2245 34.6998C48.995 34.6665 43.1604 34.2331 42.177 34.2665C41.4886 34.2998 40.6365 34.6665 39.9481 35.3331C39.3909 35.8331 38.6697 36.6998 38.1453 38.0998C37.6208 38.1998 32.8679 39.1331 32.8679 39.1331L32.8679 40.1665L33.2612 40.2665C34.7363 40.5998 36.6046 41.3998 37.7191 42.2331L37.6536 42.2665C36.703 42.8998 35.4247 43.7665 34.3429 44.7665C32.9662 46.0331 32.3107 47.1665 32.4089 48.1665C32.4745 48.8665 32.7695 49.3998 33.2612 49.7665C33.6545 50.0331 34.1462 50.1665 34.7035 50.1665C34.048 51.3331 33.6874 52.2331 33.4252 53.0998C33.0973 54.2998 32.9662 55.4998 33.1301 56.9998C33.3268 59.2998 34.474 61.5998 35.7852 63.5998L29 63.5998L29 79.5665C29 80.9998 29.295 82.3665 29.9178 83.5665C30.4751 84.6998 31.2617 85.6665 32.2451 86.4998C34.0151 87.9665 36.3752 88.8331 38.5714 88.8331C40.7676 88.8331 43.1276 87.9665 44.8977 86.4998C45.881 85.6998 46.6677 84.6998 47.225 83.5665C47.7822 82.4665 48.0771 81.2665 48.1428 79.9998C48.2739 77.8665 48.995 74.6998 50.1095 72.2332C51.3551 69.4332 53.0267 67.9665 55.1573 67.7665C56.3047 67.6665 57.4519 67.8331 58.4353 68.2998C59.2548 68.6665 60.0414 69.2331 60.6642 69.9331C61.8115 71.1665 62.3688 72.5665 62.4343 72.8665L62.4343 72.8331L62.8276 74.1331L63.3849 72.9998C64.2699 71.1331 65.5155 68.1998 66.4332 64.7665C67.4495 61.4998 67.7772 58.5331 67.5477 56.0331ZM36.5719 64.5665L36.8014 64.8665C37.5225 65.8331 38.2764 66.6665 38.8992 67.3331L40.3086 68.8665C42.5704 71.2665 44.3405 73.1665 45.1599 74.5665C46.2089 76.3665 46.9628 78.1331 47.225 79.4665C47.2577 79.5998 47.2905 79.8665 47.2905 79.9665C47.1594 82.8331 45.6843 84.6331 44.406 85.6998C42.7998 87.0331 40.6692 87.8331 38.7025 87.8331C36.703 87.8331 34.6051 87.0665 32.999 85.6998C31.6879 84.5998 30.1145 82.6331 30.1145 79.5665L30.1145 64.6331L36.5719 64.5665ZM38.2764 43.0665L38.5059 42.8998C38.6697 43.1331 38.7681 43.3331 38.7681 43.5665C38.8336 44.3665 38.1124 45.2331 37.2274 46.3665C36.6375 47.0998 35.9818 47.9665 35.3263 48.9665C34.7035 49.1331 34.1791 49.0665 33.8185 48.7998C33.589 48.5998 33.4252 48.3331 33.3923 47.9665C33.3268 47.2998 33.884 46.4331 34.9985 45.3998C36.0802 44.5331 37.3585 43.6998 38.2764 43.0665ZM65.6138 64.5331C64.8927 67.2665 63.9421 69.7331 63.0898 71.4998C62.7621 70.8331 62.2704 70.0665 61.582 69.3331C60.402 67.9998 58.3042 66.4998 55.1573 66.7665C53.8135 66.8998 52.6007 67.4665 51.5518 68.3998C50.6995 69.1998 49.9456 70.3665 49.29 71.7998C48.5361 73.5331 48.0116 75.4998 47.6183 77.3331C47.225 76.2998 46.7004 75.1998 46.0122 74.0331C45.1271 72.5331 43.3243 70.5998 41.0298 68.1665L39.6202 66.6331C38.1124 64.9998 36.8341 63.3331 35.9163 61.7332C34.9001 59.9665 34.3102 58.2998 34.1791 56.8665C34.048 55.4998 34.1462 54.4331 34.4413 53.3331C34.7035 52.3331 35.1952 51.2998 36.0802 49.7998C36.703 48.6998 37.3914 47.8331 38.0469 47.0665C39.0958 45.7665 39.8826 44.7331 39.7842 43.5331C39.6859 42.5331 38.8663 41.5998 37.2603 40.7331C36.5719 40.3665 35.7852 40.0331 35.0641 39.7665C36.6046 39.4665 38.6041 39.0665 38.6041 39.0665L38.8992 38.9998L38.9976 38.7331C39.7186 36.3665 41.3248 35.2998 42.2098 35.2665C42.8326 35.2331 45.8154 35.4665 47.9789 35.5998C47.52 36.0331 46.9628 36.5998 46.5366 37.0331C45.8483 37.7331 45.0615 37.9331 43.9143 38.1998L42.7998 38.4665L43.226 39.0998C43.4554 39.4331 44.6355 42.2331 44.996 43.7998C45.0944 44.1331 45.2255 45.2331 45.3566 46.4665C45.6188 48.5998 45.9794 51.2998 46.34 52.7665C46.8317 54.8665 47.8805 56.4998 49.6833 57.8665L50.2734 58.2998L50.3717 57.9331C50.8634 56.2998 52.2073 53.8998 53.5184 52.2998C54.6658 50.8665 56.5341 49.1331 58.6647 48.8665C60.402 48.6331 62.2375 49.2331 63.6798 50.4331C65.286 51.7665 66.3021 53.7998 66.4988 56.1331C66.7611 58.4998 66.4332 61.3331 65.6138 64.5331ZM42.2754 39.8998C42.2098 39.0998 41.4886 38.4665 40.6692 38.5665C39.8826 38.6331 39.2598 39.3665 39.358 40.1998C39.4236 40.9998 40.1448 41.6331 40.9642 41.5331C41.751 41.4331 42.3409 40.6998 42.2754 39.8998ZM41.2593 39.9998C41.292 40.2331 41.0953 40.4665 40.8658 40.4998C40.6365 40.5331 40.407 40.3331 40.3743 40.0998C40.3414 39.8665 40.5381 39.6331 40.7676 39.5998C41.0298 39.5331 41.2264 39.6998 41.2593 39.9998ZM37.4241 81.4331L37.4241 81.6665C37.4241 81.9998 37.3914 82.1665 36.7686 82.1665C36.4735 82.1665 36.0802 82.1331 35.7524 82.0331L35.6541 82.7331C35.9491 82.8331 36.3424 82.8998 36.8014 82.8998C37.9813 82.8998 38.2437 82.4665 38.2437 81.7332L38.2437 81.3331C38.2437 80.7331 38.0142 80.3331 37.2274 80.2998C36.998 80.2998 36.8669 80.2665 36.6375 80.2665L36.6375 79.1665L38.178 79.1665L38.178 78.4665L35.7852 78.4665L35.7852 80.9331C36.113 80.9331 36.3752 80.9331 36.8341 80.9665C37.3585 80.9998 37.4241 81.0998 37.4241 81.4331ZM32.5402 82.7998L35.0968 82.7998L35.0968 82.0998L34.2118 82.0998L34.2118 78.4665L33.4907 78.4665L32.4089 78.7998L32.6057 79.4998L33.4252 79.2665L33.4252 82.0998L32.5729 82.0998L32.5729 82.7998L32.5402 82.7998ZM38.8992 81.4665L38.8992 81.7332C38.8992 82.4998 39.2598 82.8665 40.3086 82.8665C41.3575 82.8665 41.7181 82.5665 41.7181 81.7332L41.7181 81.4665C41.7181 81.0998 41.587 80.8331 41.0953 80.5998C41.5215 80.3665 41.6198 80.0998 41.6198 79.7665L41.6198 79.4665C41.6198 78.7998 41.292 78.3998 40.3414 78.3998C39.3909 78.3998 39.0631 78.7998 39.0631 79.4665L39.0631 79.7665C39.0631 80.0998 39.1942 80.3665 39.5875 80.5998C39.0303 80.8331 38.8992 81.0998 38.8992 81.4665ZM40.8331 79.7665C40.8331 79.9998 40.7676 80.0998 40.3086 80.2998C39.8497 80.0998 39.7842 80.0331 39.7842 79.7665L39.7842 79.4998C39.7842 79.2331 39.8826 79.0998 40.3086 79.0998C40.7347 79.0998 40.8331 79.2665 40.8331 79.4998L40.8331 79.7665ZM39.6859 81.5331C39.6859 81.2665 39.7515 81.1331 40.3086 80.8998C40.8658 81.1331 40.9314 81.2332 40.9314 81.5331L40.9314 81.7332C40.9314 82.0665 40.7676 82.1665 40.3086 82.1665C39.8497 82.1665 39.6859 82.0331 39.6859 81.7332L39.6859 81.5331ZM43.6848 78.4665L42.1443 81.0665L42.1443 81.7998L44.0127 81.7998L44.0127 82.7665L44.7993 82.7665L44.7993 81.7998L45.3239 81.7998L45.3239 81.0998L44.7993 81.0998L44.7993 78.4331L43.6848 78.4331L43.6848 78.4665ZM42.9637 81.1331L44.0127 79.2332L44.0127 81.1331L42.9637 81.1331Z" fill="#E1001A" fill-opacity="1.000000" fill-rule="nonzero"/>
	</g>
	<rect id="Frame 226" rx="-0.500000" width="254.000000" height="134.000000" transform="translate(0.500000 0.500000)" stroke="#C4C4C4" stroke-opacity="1.000000" stroke-width="1.000000"/>
</svg>
