<svg width="255.000000" height="135.000000" viewBox="0 0 255 135" fill="none" xmlns="http://www.w3.org/2000/svg" xmlns:xlink="http://www.w3.org/1999/xlink">
	<desc>
			Created with Pixso.
	</desc>
	<defs>
		<clipPath id="clip1_588">
			<rect id="royal-talens-bv-logo-vector 1" width="225.000000" height="21.000000" transform="translate(15.000000 57.000000)" fill="white" fill-opacity="0"/>
		</clipPath>
	</defs>
	<rect id="royal-talens-bv-logo-vector 1" width="225.000000" height="21.000000" transform="translate(15.000000 57.000000)" fill="#FFFFFF" fill-opacity="0"/>
	<g clip-path="url(#clip1_588)">
		<path id="Vector" d="M28.5516 77.1446L26.0433 77.8057L20.5774 69.5613L17.5075 69.4835L17.6573 77.4557L15.1864 77.6502L15.1864 57.5057L19.9784 57.3502C22.1498 57.2724 23.8345 57.778 24.9951 58.7891C26.1556 59.8391 26.7546 61.2391 26.7546 62.9113C26.7546 64.0391 26.3802 65.128 25.6689 66.2168C24.9576 67.3446 23.9468 68.2002 22.5991 68.7446L22.5991 68.8224L28.5516 77.1446ZM17.6199 58.9446L17.4701 68.1224L21.2139 67.9668C22.5616 67.578 24.1714 65.9446 24.1714 63.5335C24.1714 60.8502 22.4868 59.1002 19.6789 59.0224L17.6199 58.9446ZM40.1947 77.8057C34.8037 77.8057 30.5732 73.6446 30.5732 67.4224C30.5732 61.7057 35.3653 57.0391 40.7563 57.0391C46.1848 57.0391 50.4152 61.2391 50.4152 67.4613C50.3777 73.2168 45.3611 77.8057 40.1947 77.8057ZM40.5691 76.1335C44.7996 76.1335 47.7571 72.8668 47.7571 67.6557C47.7571 62.4446 44.3129 58.7113 40.3819 58.7113C36.1889 58.7113 33.1939 61.9391 33.1939 67.228C33.1939 72.3224 36.713 76.1335 40.5691 76.1335ZM61.01 77.4557L58.5391 77.6502L58.5391 68.0835L51.2388 57.7002L53.8969 57.3502L60.0367 66.6446L66.3636 57.3502L68.4976 57.7002L60.9726 68.2002L61.01 77.4557ZM85.2696 77.4168L82.6864 77.6891L80.7771 72.3613L71.4551 72.5557L69.5458 77.6502L67.4119 77.4168L75.7604 57.3502L76.8835 57.0779L85.2696 77.4168ZM76.0225 60.8113L72.1664 70.7668L80.1781 70.9224L76.0225 60.8113ZM93.8428 77.4557L88.7139 77.6113L88.7139 57.5446L91.1848 57.3502L91.0724 65.8668L91.1473 75.9002L99.3835 75.5891L99.1964 77.4946L93.8428 77.4557ZM150.785 77.4557L148.315 77.6502L148.315 59.0224L140.827 59.2946L141.014 57.3502L149.325 57.3502L158.048 57.1557L157.861 59.2168L150.823 58.9446L150.673 66.3335L150.785 77.4557ZM174.633 77.4168L172.05 77.6891L170.141 72.3613L160.819 72.5557L158.909 77.6502L156.775 77.4168L165.124 57.3502L166.247 57.0779L174.633 77.4168ZM165.386 60.8113L161.53 70.7668L169.542 70.9224L165.386 60.8113ZM183.206 77.4557L178.077 77.6113L178.077 57.5446L180.548 57.3502L180.436 65.828L180.511 75.8613L188.747 75.5502L188.56 77.4557L183.206 77.4557ZM195.523 77.4557L192.266 77.6113L192.266 57.5057L196.909 57.3502L202.674 57.3502L202.487 59.2946L194.737 58.9835L194.55 66.6057L201.289 66.4113L200.877 68.3168L194.513 68.1224L194.7 75.8613L203.31 75.5891L203.123 77.4946L195.523 77.4946L195.523 77.4557ZM209.413 77.4557L207.204 77.6502L207.391 57.5446L209.188 57.3502L221.131 72.9057L220.906 57.5446L223.115 57.3502L222.853 77.4557L222.029 77.6113L209.151 61.3557L209.413 77.4557ZM232.849 77.6502C231.726 77.6502 230.602 77.4168 229.517 76.9502C228.431 76.4835 227.607 75.9002 227.008 75.3168L228.206 73.9557C229.704 75.1224 231.314 76.0168 233.485 76.0168C235.881 76.0168 237.528 74.8891 237.528 72.6724C237.528 71.5057 237.117 70.6113 236.368 70.0668C235.619 69.5224 234.571 68.978 233.298 68.4335C230.64 67.3446 227.795 66.2168 227.795 62.5224C227.795 59.5668 230.378 57.1946 233.897 57.1946C235.731 57.1946 237.641 57.7391 238.764 58.5946L238.315 60.3446C237.191 59.8002 235.02 58.9835 233.373 58.9835C231.538 58.9835 230.003 59.8779 230.003 61.8224C230.003 63.0668 230.415 63.9613 231.164 64.5057C231.913 65.0891 232.961 65.6335 234.196 66.1779C236.817 67.3446 239.737 68.2779 239.737 71.8946C239.775 75.7057 236.443 77.6502 232.849 77.6502Z" fill="#333333" fill-opacity="1.000000" fill-rule="nonzero"/>
		<path id="Vector" d="M110.279 57.0776L110.279 77.5721L130.008 77.5721L130.008 57.0776L110.279 57.0776ZM120.125 76.7165C115.108 76.7165 111.065 72.5165 111.065 67.3054C111.065 62.0943 115.108 57.8943 120.125 57.8943C125.141 57.8943 129.185 62.0943 129.185 67.3054C129.185 72.5165 125.141 76.7165 120.125 76.7165ZM112.188 68.9776C112.375 69.911 113.274 72.1665 114.809 71.6221C115.932 71.1943 116.007 70.1054 116.231 68.861C116.418 67.6943 116.718 65.4776 117.092 65.011C117.13 64.9721 117.092 64.9332 117.055 64.9332C116.156 64.9721 115.557 67.0721 115.22 68.0443C114.584 69.9499 112.637 70.1054 112.3 68.9388C112.3 68.9388 112.188 68.9388 112.188 68.9776ZM127.912 65.6721C127.687 65.1665 127.537 64.9721 127.313 64.5054C127.5 63.961 127.725 63.2221 127.687 62.911C127.537 61.5888 125.815 62.9887 126.19 64.6999C126.302 65.1665 126.414 65.5165 126.489 65.8276C125.965 66.9165 125.74 66.7221 125.778 66.3332C125.815 66.061 125.853 65.5165 125.853 65.5165C126.003 64.4665 125.478 64.3887 125.141 64.6221C124.954 64.7388 124.692 65.1276 124.58 65.361L124.692 64.8554L123.756 65.2443L123.457 66.8387C123.082 67.7332 122.671 67.8887 122.408 67.8499C122.334 67.811 122.259 67.7721 122.184 67.7332C123.045 66.9554 123.344 66.2943 123.27 65.8276C123.195 65.3221 122.82 65.3221 122.558 65.3999C121.884 65.6332 121.323 66.3332 121.173 67.3054C121.136 67.6165 121.136 67.9276 121.21 68.161C120.611 69.1332 120.574 68.5887 120.649 68.1999C120.836 67.3054 121.435 63.611 121.435 63.611L120.499 63.9999C120.499 63.9999 119.938 67.2276 119.713 68.4721C119.264 69.5999 119.151 69.1721 119.226 68.7832C119.376 67.8887 119.601 66.7221 119.601 66.7221L118.702 67.0721C118.702 67.0721 118.627 67.3443 118.552 67.811C118.44 67.461 118.215 67.2276 117.916 67.1888C117.354 67.111 116.755 67.8887 116.568 68.8221C116.381 69.7943 116.681 70.6499 117.242 70.6888C117.654 70.7276 118.066 70.3776 118.328 69.8332C118.478 70.1832 118.852 70.1443 119.077 69.9887C119.301 69.8332 119.526 69.4443 119.676 69.1332C119.75 69.5999 120.125 69.5999 120.387 69.4443C120.799 69.211 121.173 68.6665 121.36 68.4332C121.51 68.7054 121.772 68.861 122.072 68.8221C122.483 68.7832 122.97 68.2387 123.344 67.6165L123.195 68.3554L124.131 67.9665L124.468 66.1776C124.917 65.0499 125.067 65.4388 125.029 65.7888C125.029 65.7888 124.992 66.0999 124.917 66.6054C124.804 67.6554 125.254 67.6943 125.591 67.4999C126.077 67.1888 126.377 66.6054 126.639 66.061C126.826 66.5276 127.051 66.9165 127.238 67.4999C128.586 71.4276 123.494 71.0387 121.473 71.1165C119.601 71.1943 119.413 72.8665 119.226 74.1499C126.19 74.2276 129.334 68.8999 127.912 65.6721ZM118.403 68.6665C118.365 69.1332 118.066 69.6387 117.804 69.6387C117.542 69.6387 117.354 69.2499 117.429 68.7054C117.504 68.2388 117.729 67.811 117.991 67.811C118.253 67.811 118.44 68.1999 118.403 68.6665ZM122.072 67.4221C122.034 67.3054 122.034 67.1888 122.034 67.0332C122.072 66.5665 122.296 66.061 122.596 65.9832C122.708 65.9443 122.82 65.9832 122.82 66.1776C122.82 66.6054 122.408 67.111 122.072 67.4221ZM127.163 64.1554C127.126 64.1165 127.126 64.0776 127.126 64.0388C126.564 62.6387 127.313 62.4443 127.388 63.0276C127.388 63.3387 127.313 63.7665 127.163 64.1554ZM121.098 60.1499C120.986 61.0443 120.911 62.911 119.226 63.1832C116.456 63.6499 112.75 64.8943 112.151 67.6943C112.151 67.7332 112.038 67.7332 112.038 67.7332C111.963 63.3387 115.745 60.1499 121.098 60.1499Z" fill="#FF0000" fill-opacity="1.000000" fill-rule="nonzero"/>
	</g>
	<rect id="Frame 228" rx="-0.500000" width="254.000000" height="134.000000" transform="translate(0.500000 0.500000)" stroke="#C4C4C4" stroke-opacity="1.000000" stroke-width="1.000000"/>
</svg>
