<svg width="255.000000" height="135.000000" viewBox="0 0 255 135" fill="none" xmlns="http://www.w3.org/2000/svg" xmlns:xlink="http://www.w3.org/1999/xlink">
	<desc>
			Created with Pixso.
	</desc>
	<defs>
		<clipPath id="clip1_581">
			<rect id="Frame" width="209.000000" height="26.000000" transform="translate(23.000000 54.000000)" fill="white" fill-opacity="0"/>
		</clipPath>
	</defs>
	<g clip-path="url(#clip1_581)">
		<path id="Vector" d="M149.093 79.9242L146.835 79.9242L146.835 54.0758L149.093 54.0758L149.093 79.9242ZM202.734 54.0758L202.734 75.7426L182.572 54.0758L182.572 54L180.239 54L180.239 79.9242L182.572 79.9242L182.572 58.0289L202.734 79.9242L202.734 79.8473L202.734 79.9242L205.066 79.9242L205.066 54.0758L202.734 54.0758ZM175.123 54.0758L175.123 54.1516L151.198 79.8473L154.658 79.8473L175.123 57.2688L175.123 72.2442L165.042 72.2442L165.042 74.6014L175.123 74.6014L175.123 79.8473L177.378 79.8473L177.378 54.0758L175.123 54.0758Z" fill="#000000" fill-opacity="1.000000" fill-rule="evenodd"/>
		<path id="Vector" d="M146.835 79.9242L146.835 54.0758L149.093 54.0758L149.093 79.9242L146.835 79.9242ZM202.734 75.7426L182.572 54.0758L182.572 54L180.239 54L180.239 79.9242L182.572 79.9242L182.572 58.0289L202.734 79.9242L205.066 79.9242L205.066 54.0758L202.734 54.0758L202.734 75.7426ZM202.734 79.9242L202.734 79.8473L202.734 79.9242M175.123 54.1516L151.198 79.8473L154.658 79.8473L175.123 57.2688L175.123 72.2442L165.042 72.2442L165.042 74.6014L175.123 74.6014L175.123 79.8473L177.378 79.8473L177.378 54.0758L175.123 54.0758L175.123 54.1516Z" stroke="#000000" stroke-opacity="1.000000" stroke-width="0.000000"/>
		<path id="Vector" d="M137.206 68.1384L137.356 68.1384C141.118 68.1384 144.201 64.7181 144.201 60.9176C144.201 57.2688 141.342 54.2274 137.805 54.0758L137.805 54L137.43 54L118.924 54L118.924 79.9242L121.256 79.9242L121.256 56.3571L137.656 56.3571C138.763 56.5031 139.779 57.0469 140.513 57.8866C141.247 58.7264 141.649 59.8045 141.644 60.9188C141.644 63.3517 139.763 65.7077 137.28 65.8604L134.121 65.8604L134.121 68.4449L134.195 68.4449L140.891 79.8484L144.579 79.8484L137.206 68.1384ZM104.027 54L91.464 54.0758L91.464 79.923L110.347 79.923C113.957 79.6946 116.741 76.6531 116.741 73.0032C116.741 70.4956 115.462 68.3669 113.506 67.1499C115.461 65.9351 116.741 63.4264 116.741 60.9176C116.741 57.2688 113.957 54.3031 110.422 54.0758L110.422 54L104.027 54ZM104.027 77.5659L93.7954 77.5659L93.7954 56.3571L110.271 56.3571C111.378 56.5031 112.394 57.0469 113.128 57.8867C113.862 58.7265 114.264 59.8046 114.258 60.9188C114.258 63.4275 112.227 65.7835 109.743 65.8604L109.743 68.4427C112.226 68.4427 114.258 70.4956 114.258 73.0032C114.258 75.3603 112.452 77.2605 110.196 77.5659L104.027 77.5659Z" fill="#000000" fill-opacity="1.000000" fill-rule="evenodd"/>
		<path id="Vector" d="M23 54L23 79.8472L25.3325 79.8472L45.796 57.8773L45.796 72.2442L35.8647 72.2442L35.8647 74.6013L45.796 74.6013L45.796 79.8472L48.0537 79.8472L48.0537 54L23 54ZM25.3325 76.3499L25.3325 67.5321L33.6082 67.5321L25.3325 76.3499ZM25.3325 65.175L25.3325 56.356L44.1404 56.356L35.8647 65.175L25.3325 65.175Z" fill="#00ACEC" fill-opacity="1.000000" fill-rule="evenodd"/>
		<path id="Vector" d="M219.21 54C212.139 54 206.345 59.7775 206.345 66.9247C206.345 74.0686 212.139 79.9242 219.21 79.9242C226.281 79.9242 232 74.0686 232 66.9247C232 59.7775 226.281 54 219.21 54ZM219.21 77.1859C213.642 77.1859 209.204 72.6254 209.204 67.0763C209.204 61.4504 213.642 56.9657 219.21 56.9657C224.702 56.9657 229.216 61.4504 229.216 67.0763C229.216 72.6254 224.702 77.1859 219.21 77.1859Z" fill="#000000" fill-opacity="1.000000" fill-rule="evenodd"/>
		<path id="Vector" d="M81.7581 56.5086L81.7581 54.1515L56.5547 54.1515L56.5547 79.9241L58.8124 79.9241L58.8124 68.0625L73.66 68.0625L62.7234 79.8472L66.1843 79.8472L86.5729 57.2687L86.5729 72.2441L76.5668 72.2441L76.5668 74.6013L86.5729 74.6013L86.7225 79.9998L89.0551 79.9998L88.9054 54.0757L86.5729 54.0757L86.5729 54.1515L75.8474 65.7065L58.8124 65.7065L58.8124 56.5086L81.7581 56.5086Z" fill="#000000" fill-opacity="1.000000" fill-rule="evenodd"/>
		<path id="Vector" d="M81.7581 54.1515L56.5547 54.1515L56.5547 79.9241L58.8124 79.9241L58.8124 68.0625L73.66 68.0625L62.7234 79.8472L66.1843 79.8472L86.5729 57.2687L86.5729 72.2441L76.5668 72.2441L76.5668 74.6013L86.5729 74.6013L86.7225 79.9998L89.0551 79.9998L88.9054 54.0757L86.5729 54.0757L86.5729 54.1515L75.8474 65.7065L58.8124 65.7065L58.8124 56.5086L81.7581 56.5086L81.7581 54.1515Z" stroke="#000000" stroke-opacity="1.000000" stroke-width="0.000000"/>
	</g>
	<rect id="Frame 227" rx="-0.500000" width="254.000000" height="134.000000" transform="translate(0.500000 0.500000)" stroke="#C4C4C4" stroke-opacity="1.000000" stroke-width="1.000000"/>
</svg>
