<svg width="130.004028" height="23.062500" viewBox="0 0 130.004 23.0625" fill="none" xmlns="http://www.w3.org/2000/svg" xmlns:xlink="http://www.w3.org/1999/xlink">
	<desc>
			Created with Pixso.
	</desc>
	<defs/>
	<path id="Подробнее" d="M67.9504 9.61589Q66.9843 9.03906 65.6738 9.03906Q64.8305 9.03906 64.0919 9.31713Q63.0258 9.7185 62.1777 10.6992Q62.4219 9.19531 63.2275 8.29199Q64.0332 7.38867 65.6445 7.00781L66.9922 6.70508Q68.2031 6.42188 68.7549 5.73828Q69.3066 5.05469 69.3066 3.83398L67.8223 3.83398Q67.8223 4.16833 67.6809 4.42481Q67.5622 4.64028 67.3438 4.80078Q66.8652 5.15234 65.498 5.39648Q64.0906 5.64721 63.0837 6.41996Q62.3651 6.97153 61.8506 7.78906Q60.6152 9.75195 60.6152 13.082L60.6152 13.9609Q60.6152 16.075 61.6293 17.4304Q61.7629 17.609 61.9141 17.7744Q62.3653 18.2681 62.9168 18.5902Q63.9525 19.1953 65.3418 19.1953Q66.5653 19.1953 67.5412 18.7037Q67.6869 18.6303 67.8271 18.5459Q68.2341 18.301 68.5695 17.9811Q69.1235 17.4527 69.4824 16.7197Q70.0586 15.543 70.0586 14.0488L70.0586 13.8828Q70.0586 12.0149 69.1784 10.7684Q69.0325 10.5617 68.8623 10.3721Q68.453 9.91594 67.9504 9.61589ZM10.625 19L12.5098 19L12.5098 4.78125L1.73828 4.78125L1.73828 19L3.61328 19L3.61328 6.32422L10.625 6.32422L10.625 19ZM15.7666 10.8262Q15.1562 12.0664 15.1562 13.6191L15.1562 13.7461Q15.1562 15.9054 16.1825 17.3204Q16.3259 17.518 16.4893 17.7012Q17.0163 18.2919 17.6707 18.6491Q18.6717 19.1953 19.9707 19.1953Q21.1287 19.1953 22.0708 18.7444Q22.2887 18.6401 22.4951 18.5117Q22.8683 18.2795 23.183 17.9847Q23.7945 17.4118 24.1846 16.6025Q24.7754 15.377 24.7754 13.834L24.7754 13.707Q24.7754 11.5001 23.7201 10.0739Q23.5894 9.89717 23.4424 9.73242Q22.9242 9.15164 22.2814 8.79661Q21.2705 8.23828 19.9512 8.23828Q18.8578 8.23828 17.953 8.65134Q17.7022 8.76585 17.4658 8.91211Q17.1898 9.08293 16.9445 9.29016Q16.2222 9.90035 15.7666 10.8262ZM46.2305 17.7207Q47.334 16.2461 47.334 13.834L47.334 13.668Q47.334 11.1094 46.2256 9.67383Q45.7407 9.04584 45.1035 8.69256Q44.2841 8.23828 43.2129 8.23828Q41.9432 8.23828 41.033 8.81037Q40.5362 9.12267 40.1465 9.60547L40.0586 8.43359L38.4082 8.43359L38.4082 23.0625L40.2148 23.0625L40.2148 17.9746Q40.5132 18.3047 40.8716 18.5455Q41.8386 19.1953 43.2422 19.1953Q44.2388 19.1953 45.0169 18.783Q45.7104 18.4156 46.2305 17.7207ZM49.7607 10.8262Q49.1504 12.0664 49.1504 13.6191L49.1504 13.7461Q49.1504 15.9054 50.1766 17.3204Q50.32 17.518 50.4834 17.7012Q51.0104 18.2919 51.6649 18.6491Q52.6658 19.1953 53.9648 19.1953Q55.1228 19.1953 56.065 18.7444Q56.2829 18.6401 56.4893 18.5117Q56.8625 18.2795 57.1771 17.9847Q57.7886 17.4118 58.1787 16.6025Q58.7695 15.377 58.7695 13.834L58.7695 13.707Q58.7695 11.5001 57.7143 10.0739Q57.5835 9.89717 57.4365 9.73242Q56.9184 9.15164 56.2755 8.79661Q55.2646 8.23828 53.9453 8.23828Q52.8519 8.23828 51.9471 8.65134Q51.6963 8.76585 51.46 8.91211Q51.1839 9.08293 50.9386 9.29016Q50.2164 9.90035 49.7607 10.8262ZM85.3757 18.5926Q86.4377 19.1953 87.8418 19.1953Q89.4221 19.1953 90.5323 18.4729Q91.2882 17.981 91.8262 17.1543L90.7227 16.2949Q90.2845 16.862 89.7178 17.2325Q89.6404 17.2831 89.5605 17.3301Q88.8965 17.7207 87.9395 17.7207Q87.1912 17.7207 86.589 17.4242Q86.1065 17.1866 85.7178 16.7588Q85.5921 16.6205 85.4837 16.4698Q84.8381 15.5723 84.8047 14.2344L91.9629 14.2344L91.9629 13.4824Q91.9629 10.9531 90.8203 9.5957Q90.4826 9.19446 90.0646 8.91182Q89.0686 8.23828 87.6172 8.23828Q87.066 8.23828 86.5494 8.37195Q85.8853 8.54378 85.2783 8.93652Q84.9836 9.12723 84.7245 9.35801Q84.0352 9.97218 83.5986 10.8701Q82.998 12.1055 82.998 13.6777L82.998 14.0098Q82.998 15.9629 83.9185 17.2657Q84.1118 17.5393 84.3457 17.7842Q84.8126 18.2731 85.3757 18.5926ZM95.9714 18.5926Q97.0334 19.1953 98.4375 19.1953Q100.018 19.1953 101.128 18.4729Q101.884 17.981 102.422 17.1543L101.318 16.2949Q100.88 16.862 100.313 17.2325Q100.236 17.2831 100.156 17.3301Q99.4922 17.7207 98.5352 17.7207Q97.7869 17.7207 97.1847 17.4242Q96.7022 17.1866 96.3135 16.7588Q96.1878 16.6205 96.0795 16.4698Q95.4338 15.5723 95.4004 14.2344L102.559 14.2344L102.559 13.4824Q102.559 10.9531 101.416 9.5957Q101.078 9.19446 100.66 8.91182Q99.6644 8.23828 98.2129 8.23828Q97.6617 8.23828 97.1451 8.37195Q96.481 8.54378 95.874 8.93652Q95.5793 9.12723 95.3203 9.35801Q94.6309 9.97218 94.1943 10.8701Q93.5938 12.1055 93.5938 13.6777L93.5938 14.0098Q93.5938 15.9629 94.5142 17.2657Q94.7075 17.5393 94.9414 17.7842Q95.4083 18.2731 95.9714 18.5926ZM26.875 16.7539L26.25 17.5254L25.4297 17.5254L25.4199 22.1055L27.2266 22.1055L27.2266 19L34.5996 19L34.5996 22.1055L36.4062 22.1055L36.4062 17.5254L35.0488 17.5254L35.0488 8.43359L28.2422 8.43359L28.0762 12.6523Q27.9297 15.3867 26.875 16.7539ZM78.75 19L80.5566 19L80.5566 8.43359L78.75 8.43359L78.75 13.0137L73.8965 13.0137L73.8965 8.43359L72.0801 8.43359L72.0801 19L73.8965 19L73.8965 14.4883L78.75 14.4883L78.75 19ZM17.7881 16.6562Q16.9727 15.5918 16.9727 13.834Q16.9727 11.8516 17.793 10.7871Q18.2078 10.2488 18.755 9.98272Q19.2899 9.72266 19.9512 9.72266Q20.6459 9.72266 21.2007 10.0013Q21.7377 10.271 22.1436 10.8018Q22.9688 11.8809 22.9688 13.6191Q22.9688 15.5625 22.1582 16.6416Q21.7733 17.1541 21.2606 17.4232Q20.6937 17.7207 19.9707 17.7207Q19.2532 17.7207 18.6877 17.4276Q18.1756 17.1621 17.7881 16.6562ZM51.7822 16.6562Q50.9668 15.5918 50.9668 13.834Q50.9668 11.8516 51.7871 10.7871Q52.202 10.2488 52.7492 9.98272Q53.284 9.72266 53.9453 9.72266Q54.6401 9.72266 55.1949 10.0013Q55.7318 10.271 56.1377 10.8018Q56.9629 11.8809 56.9629 13.6191Q56.9629 15.5625 56.1523 16.6416Q55.7674 17.1541 55.2547 17.4232Q54.6879 17.7207 53.9648 17.7207Q53.2474 17.7207 52.6819 17.4276Q52.1697 17.1621 51.7822 16.6562ZM86.5968 9.92798Q87.0617 9.72266 87.6172 9.72266Q88.3762 9.72266 88.9248 10.0624Q89.1949 10.2297 89.4141 10.4795Q90.0781 11.2363 90.1562 12.6133L90.1562 12.75L84.8633 12.75Q85.0391 11.3145 85.7812 10.5186Q86.1465 10.1269 86.5968 9.92798ZM97.1925 9.92798Q97.6574 9.72266 98.2129 9.72266Q98.9719 9.72266 99.5205 10.0624Q99.7906 10.2297 100.01 10.4795Q100.674 11.2363 100.752 12.6133L100.752 12.75L95.459 12.75Q95.6348 11.3145 96.377 10.5186Q96.7422 10.1269 97.1925 9.92798ZM44.7656 10.8066Q45.5273 11.8418 45.5273 13.6289Q45.5273 15.6602 44.7607 16.6904Q44.3882 17.1911 43.89 17.4484Q43.363 17.7207 42.6953 17.7207Q41.8477 17.7207 41.2215 17.3484Q40.614 16.9871 40.2148 16.2754L40.2148 11.2266Q40.6395 10.4733 41.2839 10.11Q41.8844 9.77148 42.6758 9.77148Q43.3933 9.77148 43.9456 10.0736Q44.4154 10.3308 44.7656 10.8066ZM33.2422 17.5254L28.3887 17.5254Q29.7168 15.7773 29.8828 12.623L29.9902 10.1035L33.2422 10.1035L33.2422 17.5254ZM63.8039 10.9148Q64.4433 10.5234 65.3223 10.5234Q66.2437 10.5234 66.9019 10.9397Q67.2133 11.1366 67.4658 11.4268Q67.5344 11.5055 67.5969 11.5887Q68.252 12.4603 68.252 13.8242Q68.252 15.7383 67.4707 16.7344Q67.1436 17.1514 66.7173 17.3938Q66.1253 17.7305 65.3418 17.7305Q64.5744 17.7305 63.9885 17.4043Q63.553 17.1619 63.2178 16.7393Q62.4316 15.748 62.4316 14.0488L62.4316 13.8926Q62.4316 12.3105 63.2129 11.417Q63.4771 11.1148 63.8039 10.9148Z" fill="#7875FE" fill-opacity="1.000000" fill-rule="evenodd"/>
	<path id="Arrow 1" d="M126.586 10.5L122.636 6.55025C122.24 6.15427 122.24 5.53202 122.636 5.13604C123.032 4.74006 123.654 4.74006 124.05 5.13604L129.707 10.7929C130.103 11.1889 130.103 11.8111 129.707 12.2071L124.05 17.864C123.654 18.2599 123.032 18.2599 122.636 17.864C122.24 17.468 122.24 16.8457 122.636 16.4497L126.586 12.5L109 12.5L109 10.5L126.586 10.5Z" fill="#7875FE" fill-opacity="1.000000" fill-rule="evenodd"/>
</svg>
